<svg width="87" height="65" viewBox="0 0 87 65" fill="none" xmlns="http://www.w3.org/2000/svg">
<path d="M84.6454 21.3678C85.3026 20.8454 86.28 21.3341 86.28 22.1598V56.6212C86.28 61.0869 82.6569 64.71 78.1912 64.71H8.08875C3.62309 64.71 0 61.0869 0 56.6212V22.1767C0 21.3341 0.960539 20.8622 1.6346 21.3846C5.40935 24.3168 10.4143 28.041 27.6029 40.528C31.1585 43.1231 37.1577 48.5831 43.14 48.5494C49.156 48.5999 55.2731 43.022 58.694 40.528C75.8826 28.041 80.8706 24.3 84.6454 21.3678ZM43.14 43.14C47.0496 43.2074 52.678 38.2193 55.509 36.1635C77.8711 19.9354 79.5731 18.5199 84.7297 14.4755C85.707 13.7172 86.28 12.5376 86.28 11.2905V8.08875C86.28 3.62309 82.6569 0 78.1912 0H8.08875C3.62309 0 0 3.62309 0 8.08875V11.2905C0 12.5376 0.572953 13.7003 1.55034 14.4755C6.70692 18.503 8.40893 19.9354 30.771 36.1635C33.602 38.2193 39.2304 43.2074 43.14 43.14V43.14Z" fill="white"/>
</svg>
