<svg width="87" height="61" viewBox="0 0 87 61" fill="none" xmlns="http://www.w3.org/2000/svg">
<path d="M84.4771 9.4921C83.4848 5.7558 80.5612 2.81321 76.849 1.8146C70.1205 0 43.14 0 43.14 0C43.14 0 16.1596 0 9.43096 1.8146C5.71883 2.81336 2.7952 5.7558 1.8029 9.4921C0 16.2644 0 30.3941 0 30.3941C0 30.3941 0 44.5238 1.8029 51.296C2.7952 55.0323 5.71883 57.8523 9.43096 58.851C16.1596 60.6655 43.14 60.6655 43.14 60.6655C43.14 60.6655 70.1204 60.6655 76.849 58.851C80.5612 57.8523 83.4848 55.0323 84.4771 51.296C86.28 44.5238 86.28 30.3941 86.28 30.3941C86.28 30.3941 86.28 16.2644 84.4771 9.4921V9.4921ZM34.3158 43.2228V17.5654L56.8662 30.3944L34.3158 43.2228Z" fill="#E41B1B"/>
</svg>
