<svg width="26" height="22" viewBox="0 0 26 22" fill="none" xmlns="http://www.w3.org/2000/svg">
<path d="M23.3275 5.26269C23.344 5.49364 23.344 5.72464 23.344 5.9556C23.344 13 17.9823 21.1168 8.18277 21.1168C5.16371 21.1168 2.35915 20.2424 0 18.7247C0.428951 18.7742 0.841347 18.7907 1.2868 18.7907C3.77789 18.7907 6.07107 17.9493 7.9023 16.514C5.55965 16.4645 3.59644 14.9303 2.92003 12.8186C3.25001 12.868 3.57994 12.901 3.92642 12.901C4.40483 12.901 4.8833 12.835 5.3287 12.7196C2.88708 12.2246 1.0558 10.08 1.0558 7.48986V7.42389C1.76516 7.81984 2.59011 8.06729 3.46441 8.10025C2.02913 7.14338 1.08881 5.51014 1.08881 3.66241C1.08881 2.67258 1.35272 1.76521 1.81468 0.973328C4.43779 4.20684 8.38072 6.31848 12.802 6.54949C12.7195 6.15354 12.67 5.74115 12.67 5.3287C12.67 2.39211 15.0457 0 17.9987 0C19.533 0 20.9188 0.643401 21.8921 1.68275C23.0964 1.45179 24.2512 1.00634 25.2741 0.395943C24.8781 1.63328 24.0368 2.67263 22.9315 3.33248C24.0038 3.21706 25.0432 2.92004 26 2.50764C25.2742 3.56344 24.3668 4.50376 23.3275 5.26269V5.26269Z" fill="#1783D0"/>
</svg>
