<svg width="87" height="87" viewBox="0 0 87 87" fill="none" xmlns="http://www.w3.org/2000/svg">
<path d="M43.1496 21.0142C30.9078 21.0142 21.0335 30.8885 21.0335 43.1304C21.0335 55.3722 30.9078 65.2465 43.1496 65.2465C55.3915 65.2465 65.2658 55.3722 65.2658 43.1304C65.2658 30.8885 55.3915 21.0142 43.1496 21.0142ZM43.1496 57.5088C35.2386 57.5088 28.7712 51.0606 28.7712 43.1304C28.7712 35.2001 35.2194 28.752 43.1496 28.752C51.0799 28.752 57.528 35.2001 57.528 43.1304C57.528 51.0606 51.0606 57.5088 43.1496 57.5088V57.5088ZM71.329 20.1095C71.329 22.9775 69.0192 25.2681 66.1705 25.2681C63.3025 25.2681 61.0119 22.9583 61.0119 20.1095C61.0119 17.2608 63.3217 14.951 66.1705 14.951C69.0192 14.951 71.329 17.2608 71.329 20.1095ZM85.9768 25.3451C85.6496 18.435 84.0713 12.314 79.009 7.271C73.966 2.22798 67.8451 0.649626 60.935 0.303159C53.8131 -0.101053 32.4669 -0.101053 25.3451 0.303159C18.4542 0.630378 12.3333 2.20873 7.271 7.25175C2.20873 12.2948 0.649626 18.4157 0.303159 25.3258C-0.101053 32.4476 -0.101053 53.7939 0.303159 60.9157C0.630378 67.8258 2.20873 73.9467 7.271 78.9897C12.3333 84.0328 18.435 85.6111 25.3451 85.9576C32.4669 86.3618 53.8131 86.3618 60.935 85.9576C67.8451 85.6304 73.966 84.052 79.009 78.9897C84.052 73.9467 85.6304 67.8258 85.9768 60.9157C86.3811 53.7939 86.3811 32.4669 85.9768 25.3451V25.3451ZM76.7762 68.5572C75.2748 72.3299 72.3684 75.2364 68.5765 76.757C62.8983 79.009 49.4245 78.4893 43.1496 78.4893C36.8747 78.4893 23.3817 78.9897 17.7228 76.757C13.9501 75.2556 11.0436 72.3491 9.52304 68.5572C7.271 62.879 7.7907 49.4053 7.7907 43.1304C7.7907 36.8555 7.29025 23.3625 9.52304 17.7035C11.0244 13.9309 13.9309 11.0244 17.7228 9.50379C23.401 7.25175 36.8747 7.77145 43.1496 7.77145C49.4245 7.77145 62.9175 7.271 68.5765 9.50379C72.3491 11.0052 75.2556 13.9116 76.7762 17.7035C79.0282 23.3817 78.5085 36.8555 78.5085 43.1304C78.5085 49.4053 79.0282 62.8983 76.7762 68.5572Z" fill="url(#paint0_linear_1_9)"/>
<defs>
<linearGradient id="paint0_linear_1_9" x1="43.14" y1="0" x2="43.14" y2="86.2607" gradientUnits="userSpaceOnUse">
<stop stop-color="#BA8D36"/>
<stop offset="0.567708" stop-color="#3051C6"/>
<stop offset="0.677083" stop-color="#1B40C1"/>
<stop offset="0.807292" stop-color="#A8289B"/>
<stop offset="0.911458" stop-color="#F910E1"/>
<stop offset="1" stop-opacity="0"/>
</linearGradient>
</defs>
</svg>
