<svg width="87" height="71" viewBox="0 0 87 71" fill="none" xmlns="http://www.w3.org/2000/svg">
<path d="M77.4113 17.464C77.4661 18.2304 77.4661 18.997 77.4661 19.7634C77.4661 43.14 59.6736 70.0753 27.1542 70.0753C17.1356 70.0753 7.82876 67.1736 0 62.1372C1.42346 62.3013 2.79198 62.3561 4.2702 62.3561C12.5368 62.3561 20.1466 59.5641 26.2235 54.8012C18.4495 54.6369 11.9347 49.5455 9.69002 42.5379C10.785 42.702 11.8799 42.8116 13.0297 42.8116C14.6173 42.8116 16.205 42.5925 17.6831 42.2095C9.58066 40.5669 3.50362 33.45 3.50362 24.8548V24.6359C5.85763 25.9498 8.59517 26.771 11.4965 26.8804C6.73357 23.705 3.61316 18.2852 3.61316 12.1536C3.61316 8.86884 4.48894 5.85779 6.02193 3.22995C14.7266 13.9602 27.8111 20.9676 42.483 21.7342C42.2093 20.4203 42.045 19.0518 42.045 17.6831C42.045 7.93813 49.9285 0 59.7281 0C64.8194 0 69.4181 2.1351 72.6482 5.58412C76.6446 4.81771 80.4768 3.33949 83.8712 1.31392C82.5571 5.41999 79.7652 8.86901 76.0972 11.0587C79.6558 10.6757 83.1048 9.69002 86.28 8.3215C83.8716 11.8251 80.8603 14.9455 77.4113 17.464V17.464Z" fill="#1783D0"/>
</svg>
